<?xml version="1.0" encoding="UTF-8"?>
<svg version="1.1" xmlns="http://www.w3.org/2000/svg" width="612" height="612">
<path d="M0 0 C201.96 0 403.92 0 612 0 C612 201.96 612 403.92 612 612 C410.04 612 208.08 612 0 612 C0 410.04 0 208.08 0 0 Z " fill="#FBFBFB" transform="translate(0,0)"/>
<path d="M0 0 C154.26810478 0 154.26810478 0 182.609375 27.53515625 C183.79273438 28.75525391 183.79273438 28.75525391 185 30 C185.70640625 30.69738281 186.4128125 31.39476562 187.140625 32.11328125 C204.89174197 50.62046432 212.8481391 76.27836959 212.51855469 101.48608398 C211.75717159 124.68597563 203.5655602 144.0920741 189 162 C187.99839844 163.27617187 187.99839844 163.27617187 186.9765625 164.578125 C176.74768788 176.92183024 162.19765755 185.99800444 147.25 191.375 C146.20440918 191.75156738 146.20440918 191.75156738 145.13769531 192.13574219 C140.42460422 193.73805907 135.95505984 194.52227002 131 195 C129.26270709 191.02688664 128.26611457 187.11454507 127.375 182.875 C126.98441406 181.04582031 126.98441406 181.04582031 126.5859375 179.1796875 C126 176 126 176 126 173 C125.34 173 124.68 173 124 173 C123.67 169.7 123.34 166.4 123 163 C122.01 162.67 121.02 162.34 120 162 C120.33 161.01 120.66 160.02 121 159 C120.75535313 156.28441367 120.75535313 156.28441367 120.1875 153.3125 C119.99800781 152.24644531 119.80851562 151.18039062 119.61328125 150.08203125 C119.10478034 147.52657126 118.53452087 145.01946461 117.875 142.5 C117 139 117 139 117 135 C116.34 135 115.68 135 115 135 C115 133.02 115 131.04 115 129 C114.34 129 113.68 129 113 129 C112.04738513 124.23692563 111.91666643 119.8333472 112 115 C110.515 114.505 110.515 114.505 109 114 C109.185625 113.01 109.37125 112.02 109.5625 111 C110.17661683 106.82912322 109.65520905 103.14965731 109 99 C71.38160646 104.81419532 71.38160646 104.81419532 39.3359375 123.703125 C38 125 38 125 36 125 C34.55452621 127.83909202 33.2200113 130.70887165 31.9375 133.625 C30.99207928 135.77271047 30.04942787 137.90114425 29 140 C27.71042776 149.67179177 32.77815253 158.76474819 38.4375 166.25 C39.95789238 168.16701647 41.47870386 170.08370065 43 172 C44.20927707 173.69298789 45.39954761 175.3998621 46.5625 177.125 C47.03816406 177.82882812 47.51382813 178.53265625 48.00390625 179.2578125 C49 181 49 181 49 183 C49.66 183 50.32 183 51 183 C52.24172475 184.8047617 53.39067616 186.67346698 54.5 188.5625 C57.52962995 193.64191675 60.68828902 198.59991553 64 203.5 C68.52506621 210.22342628 72.82870741 217.05104943 77 224 C77.45632813 224.75667969 77.91265625 225.51335937 78.3828125 226.29296875 C81 230.73120629 81 230.73120629 81 233 C81.66 233 82.32 233 83 233 C85.01499133 236.65859211 87.01027583 240.32760785 89 244 C89.33741211 244.62148926 89.67482422 245.24297852 90.02246094 245.88330078 C110.67036692 284.02220149 110.67036692 284.02220149 113 298 C75.71 298 38.42 298 0 298 C0 199.66 0 101.32 0 0 Z " fill="#1E181A" transform="translate(200,157)"/>
<path d="M0 0 C0.495 2.97 0.495 2.97 1 6 C-0.98 6.66 -2.96 7.32 -5 8 C-5.66 6.68 -6.32 5.36 -7 4 C-7.8353125 4.19916016 -7.8353125 4.19916016 -8.6875 4.40234375 C-16.51058684 6.21275405 -23.95720243 7.14362139 -32 7 C-27.72338031 4.14892021 -23.22461695 3.48621314 -18.25 2.375 C-16.78433594 2.03082031 -16.78433594 2.03082031 -15.2890625 1.6796875 C-10.07201489 0.49846917 -5.34853977 -0.28386105 0 0 Z " fill="#A2A2A2" transform="translate(309,256)"/>
<path d="M0 0 C3.45445968 1.15148656 4.34501574 2.66892899 6.5390625 5.44140625 C8.97830787 8.04370278 11.84550222 9.36433448 15 11 C15.99 11.66 16.98 12.32 18 13 C17 15 17 15 14 17 C14.33 18.65 14.66 20.3 15 22 C12.20127563 19.47211993 10.54226981 17.79588866 10 14 C9.34 14 8.68 14 8 14 C6.30859375 11.69921875 6.30859375 11.69921875 4.4375 8.6875 C3.81746094 7.70136719 3.19742188 6.71523438 2.55859375 5.69921875 C1 3 1 3 0 0 Z " fill="#999898" transform="translate(241,326)"/>
<path d="M0 0 C2.41346327 4.1373656 4.5081809 9.45467653 3.55078125 14.25 C3.36902344 14.8275 3.18726563 15.405 3 16 C3 15.34 3 14.68 3 14 C2.34 14 1.68 14 1 14 C0.67 14.66 0.34 15.32 0 16 C-0.33 15.34 -0.66 14.68 -1 14 C-1.99 14.495 -1.99 14.495 -3 15 C-3.38218767 13.34385343 -3.71395102 11.67542976 -4 10 C-3.67 9.67 -3.34 9.34 -3 9 C-3.04125 7.865625 -3.0825 6.73125 -3.125 5.5625 C-3.08375 4.386875 -3.0425 3.21125 -3 2 C-2.01 1.34 -1.02 0.68 0 0 Z " fill="#9D9C9C" transform="translate(316,292)"/>
<path d="M0 0 C1.98 0.495 1.98 0.495 4 1 C3.67 2.32 3.34 3.64 3 5 C3.99 5 4.98 5 6 5 C6.82638376 7.89234315 7 9.88742431 7 13 C7.804375 13.226875 8.60875 13.45375 9.4375 13.6875 C10.7059375 14.3371875 10.7059375 14.3371875 12 15 C12.8125 17.625 12.8125 17.625 13 20 C12.01 20.33 11.02 20.66 10 21 C10 20.01 10 19.02 10 18 C9.34 18 8.68 18 8 18 C6.46935061 15.38029207 4.95030252 12.75498357 3.4375 10.125 C2.99986328 9.37863281 2.56222656 8.63226563 2.11132812 7.86328125 C1.70205078 7.14785156 1.29277344 6.43242187 0.87109375 5.6953125 C0.48880615 5.03547363 0.10651855 4.37563477 -0.28735352 3.69580078 C-0.52252686 3.13618652 -0.7577002 2.57657227 -1 2 C-0.67 1.34 -0.34 0.68 0 0 Z " fill="#C2C2C2" transform="translate(273,372)"/>
<path d="M0 0 C1.32 0 2.64 0 4 0 C3.43450607 3.93053185 2.28617442 6.53407537 0.0625 9.8125 C-0.46214844 10.60269531 -0.98679687 11.39289063 -1.52734375 12.20703125 C-2.01332031 12.79871094 -2.49929688 13.39039063 -3 14 C-3.66 14 -4.32 14 -5 14 C-4.43981302 9.40646673 -3.42668586 3.42668586 0 0 Z " fill="#242021" transform="translate(398,297)"/>
<path d="M0 0 C1.2375 0.2475 1.2375 0.2475 2.5 0.5 C6.41272317 1.05896045 10.05183173 1.06807187 14 1 C9.79017688 3.25735559 5.57305272 4.16760476 0.9375 5.1875 C0.12216797 5.37763672 -0.69316406 5.56777344 -1.53320312 5.76367188 C-2.70979492 6.02567383 -2.70979492 6.02567383 -3.91015625 6.29296875 C-4.97955444 6.53309692 -4.97955444 6.53309692 -6.07055664 6.77807617 C-8 7 -8 7 -11 6 C-10.236875 5.731875 -9.47375 5.46375 -8.6875 5.1875 C-5.99592628 4.19146475 -5.99592628 4.19146475 -4.375 2.375 C-3.694375 1.694375 -3.694375 1.694375 -3 1 C-2.01 1 -1.02 1 0 1 C0 0.67 0 0.34 0 0 Z " fill="#2C292A" transform="translate(280,257)"/>
<path d="M0 0 C0.99 0.66 1.98 1.32 3 2 C3.33 1.34 3.66 0.68 4 0 C5.32 0 6.64 0 8 0 C6.78836152 3.63491543 5.89228938 3.95246215 2.625 5.75 C1.43777344 6.42289062 1.43777344 6.42289062 0.2265625 7.109375 C-2 8 -2 8 -5 7 C-5 6.01 -5 5.02 -5 4 C-4.34 4 -3.68 4 -3 4 C-2.67 3.01 -2.34 2.02 -2 1 C-1.34 0.67 -0.68 0.34 0 0 Z " fill="#2A2526" transform="translate(358,337)"/>
<path d="M0 0 C0.33 0 0.66 0 1 0 C1.33 2.64 1.66 5.28 2 8 C2.99 8 3.98 8 5 8 C5.92470553 12.71599818 6.22923777 15.67265609 4 20 C3.67 20 3.34 20 3 20 C3 18.02 3 16.04 3 14 C2.34 14 1.68 14 1 14 C0.04738513 9.23692563 -0.08333357 4.8333472 0 0 Z " fill="#525051" transform="translate(312,272)"/>
<path d="M0 0 C3.57011026 3.732388 4.10913442 8.0949989 5 13 C2.69 13 0.38 13 -2 13 C-1.44661458 11.046875 -0.89322917 9.09375 -0.33984375 7.140625 C0.03517604 4.77843139 -0.37121148 3.27750171 -1 1 C-0.67 0.67 -0.34 0.34 0 0 Z " fill="#2C2B2B" transform="translate(308,442)"/>
<path d="M0 0 C0 0.66 0 1.32 0 2 C-1.03125 2.144375 -2.0625 2.28875 -3.125 2.4375 C-5.40271569 2.76813615 -7.67698303 3.12963505 -9.9375 3.5625 C-13.67770112 4.09681445 -17.22340802 4.06511365 -21 4 C-14.83204838 -0.11196775 -7.23434167 -0.26793858 0 0 Z " fill="#B8B8B8" transform="translate(298,259)"/>
<path d="M0 0 C0.33 0.66 0.66 1.32 1 2 C1.99 2.33 2.98 2.66 4 3 C5.03039555 7.53374042 5.17766075 8.64467851 3 13 C1.35 9.37 -0.3 5.74 -2 2 C-1.34 1.34 -0.68 0.68 0 0 Z " fill="#E6E6E6" transform="translate(291,400)"/>
<path d="M0 0 C2.475 0.495 2.475 0.495 5 1 C5 1.66 5 2.32 5 3 C5.66 3 6.32 3 7 3 C7 5.66666667 7 8.33333333 7 11 C4.0444623 8.24829249 1.88436685 5.58029701 0 2 C0 1.34 0 0.68 0 0 Z " fill="#B5B5B5" transform="translate(264,360)"/>
<path d="M0 0 C2.45823172 3.68734758 3.01242616 6.69699971 4 11 C3.38125 10.79375 2.7625 10.5875 2.125 10.375 C1.42375 10.25125 0.7225 10.1275 0 10 C-0.66 10.66 -1.32 11.32 -2 12 C-1.85904936 10.3745692 -1.71207913 8.74965949 -1.5625 7.125 C-1.48128906 6.22007812 -1.40007812 5.31515625 -1.31640625 4.3828125 C-1 2 -1 2 0 0 Z " fill="#322E2F" transform="translate(228,304)"/>
<path d="M0 0 C8.57142857 1.85714286 8.57142857 1.85714286 12 5 C11.01 5.33 10.02 5.66 9 6 C9 5.34 9 4.68 9 4 C8.071875 4.37125 7.14375 4.7425 6.1875 5.125 C5.135625 5.41375 4.08375 5.7025 3 6 C2.01 5.34 1.02 4.68 0 4 C0 2.66666667 0 1.33333333 0 0 Z " fill="#2E2A2C" transform="translate(342,161)"/>
<path d="M0 0 C2.56616632 3.84924948 2.55097676 6.4349304 3 11 C0.03 10.505 0.03 10.505 -3 10 C-3.33 8.68 -3.66 7.36 -4 6 C-3.01 6 -2.02 6 -1 6 C-0.67 4.02 -0.34 2.04 0 0 Z " fill="#939393" transform="translate(325,330)"/>
<path d="M0 0 C1.98 0 3.96 0 6 0 C2.67149253 3.59478807 -0.98971331 6.22364768 -5 9 C-5.33 8.01 -5.66 7.02 -6 6 C-5.01 5.34 -4.02 4.68 -3 4 C-3 3.34 -3 2.68 -3 2 C-2.01 2 -1.02 2 0 2 C0 1.34 0 0.68 0 0 Z " fill="#2F2B2D" transform="translate(242,273)"/>
<path d="M0 0 C1.875 0.1875 1.875 0.1875 4 1 C5.125 3.375 5.125 3.375 6 6 C6.99 7.485 6.99 7.485 8 9 C7.67 9.99 7.34 10.98 7 12 C5.82767315 10.3790787 4.6622923 8.75313167 3.5 7.125 C2.8503125 6.22007812 2.200625 5.31515625 1.53125 4.3828125 C0 2 0 2 0 0 Z " fill="#A4A3A3" transform="translate(256,348)"/>
<path d="M0 0 C1.32 0.66 2.64 1.32 4 2 C3 4 3 4 0 6 C0.33 7.65 0.66 9.3 1 11 C-0.5 9.875 -0.5 9.875 -2 8 C-2.1875 4.8125 -2.1875 4.8125 -2 2 C-1.34 2 -0.68 2 0 2 C0 1.34 0 0.68 0 0 Z " fill="#A7A7A7" transform="translate(255,337)"/>
<path d="M0 0 C-1.3125 2 -1.3125 2 -3 4 C-5.83967231 4 -8.23735711 3.59732819 -11 3 C-7.74003139 -0.25996861 -4.40088745 -1.46696248 0 0 Z " fill="#CCCBCB" transform="translate(272,265)"/>
<path d="M0 0 C0.33 1.98 0.66 3.96 1 6 C0.01 5.67 -0.98 5.34 -2 5 C-2 4.01 -2 3.02 -2 2 C-4.97 2 -7.94 2 -11 2 C-6.78370866 -0.10814567 -4.60209225 -0.17700355 0 0 Z " fill="#848484" transform="translate(309,256)"/>
<path d="M0 0 C5.05255964 0.63156995 9.29593201 2.13459373 14 4 C10.06411188 5.31196271 7.91245633 4.13816911 4 3 C3.01 3.495 3.01 3.495 2 4 C2 3.01 2 2.02 2 1 C1.34 0.67 0.68 0.34 0 0 Z M1 4 C1.66 4.66 2.32 5.32 3 6 C2.01 5.67 1.02 5.34 0 5 C0.33 4.67 0.66 4.34 1 4 Z " fill="#D6D6D6" transform="translate(270,345)"/>
<path d="M0 0 C0.66 0.99 1.32 1.98 2 3 C0.02 5.31 -1.96 7.62 -4 10 C-5 6 -5 6 -4.00390625 4.296875 C-2.66927083 2.86458333 -1.33463542 1.43229167 0 0 Z " fill="#252424" transform="translate(388,315)"/>
<path d="M0 0 C2.32472205 2.85306797 3.7508258 5.54074837 5 9 C4.01 9.495 4.01 9.495 3 10 C2.67 9.34 2.34 8.68 2 8 C1.01 8 0.02 8 -1 8 C-0.67 5.36 -0.34 2.72 0 0 Z " fill="#2A2829" transform="translate(290,405)"/>
<path d="M0 0 C0.99 0.33 1.98 0.66 3 1 C4.1875 3.5625 4.1875 3.5625 5 6 C3.35 6 1.7 6 0 6 C0 4.02 0 2.04 0 0 Z " fill="#231F20" transform="translate(257,353)"/>
<path d="M0 0 C0.33 0 0.66 0 1 0 C2.13764351 4.26616316 3 7.56486311 3 12 C1.68 11.67 0.36 11.34 -1 11 C-0.835 10.484375 -0.67 9.96875 -0.5 9.4375 C0.15049 6.26636124 0.0620734 3.22781666 0 0 Z " fill="#928F90" transform="translate(328,341)"/>
<path d="M0 0 C2.31 0 4.62 0 7 0 C7 0.66 7 1.32 7 2 C6.34 2 5.68 2 5 2 C5 3.65 5 5.3 5 7 C4.34 5.68 3.68 4.36 3 3 C2.34 3 1.68 3 1 3 C0.67 2.01 0.34 1.02 0 0 Z " fill="#979797" transform="translate(248,337)"/>
<path d="M0 0 C0.33 0 0.66 0 1 0 C3.27678571 8.03571429 3.27678571 8.03571429 2 12 C2 11.34 2 10.68 2 10 C1.34 10 0.68 10 0 10 C-1.125 3.375 -1.125 3.375 0 0 Z " fill="#898989" transform="translate(317,296)"/>
<path d="M0 0 C0 0.66 0 1.32 0 2 C-3.3 3.32 -6.6 4.64 -10 6 C-10 5.34 -10 4.68 -10 4 C-9.34 4 -8.68 4 -8 4 C-7.67 3.01 -7.34 2.02 -7 1 C-4.52260646 0.09162237 -2.66420516 0 0 0 Z " fill="#2A2829" transform="translate(261,266)"/>
<path d="M0 0 C3.465 1.485 3.465 1.485 7 3 C6.360625 3.12375 5.72125 3.2475 5.0625 3.375 C4.381875 3.58125 3.70125 3.7875 3 4 C2.67 4.66 2.34 5.32 2 6 C2 5.34 2 4.68 2 4 C1.01 3.67 0.02 3.34 -1 3 C-0.67 2.01 -0.34 1.02 0 0 Z " fill="#A8A8A8" transform="translate(248,333)"/>
<path d="M0 0 C1.32 1.32 2.64 2.64 4 4 C3.34 4.66 2.68 5.32 2 6 C1.01 6 0.02 6 -1 6 C-1.33 5.01 -1.66 4.02 -2 3 C-1.34 2.01 -0.68 1.02 0 0 Z " fill="#2A2829" transform="translate(237,322)"/>
<path d="M0 0 C0.66 0.33 1.32 0.66 2 1 C1.34 3.31 0.68 5.62 0 8 C-0.33 7.01 -0.66 6.02 -1 5 C-1.66 5 -2.32 5 -3 5 C-1.125 1.125 -1.125 1.125 0 0 Z " fill="#322D2F" transform="translate(406,283)"/>
<path d="M0 0 C2.64 0 5.28 0 8 0 C8 0.66 8 1.32 8 2 C5.69 2.33 3.38 2.66 1 3 C0.67 2.01 0.34 1.02 0 0 Z " fill="#B2B0B1" transform="translate(290,259)"/>
<path d="M0 0 C1.5 1.3125 1.5 1.3125 3 3 C3 3.99 3 4.98 3 6 C2.01 6.33 1.02 6.66 0 7 C-0.38133299 5.0085944 -0.71325582 3.00720923 -1 1 C-0.67 0.67 -0.34 0.34 0 0 Z " fill="#D5D5D5" transform="translate(283,386)"/>
<path d="M0 0 C2.97 1.98 2.97 1.98 6 4 C5.67 4.66 5.34 5.32 5 6 C3.0625 5.25 3.0625 5.25 1 4 C0.25 1.875 0.25 1.875 0 0 Z " fill="#262526" transform="translate(374,178)"/>
<path d="M0 0 C0.99 1.32 1.98 2.64 3 4 C2.34 5.32 1.68 6.64 1 8 C0.01 5.69 -0.98 3.38 -2 1 C-1.34 0.67 -0.68 0.34 0 0 Z " fill="#D7D6D6" transform="translate(293,405)"/>
<path d="M0 0 C1.5625 1.6875 1.5625 1.6875 3 4 C2.6875 6.75 2.6875 6.75 2 9 C1.67 7.68 1.34 6.36 1 5 C0.01 5 -0.98 5 -2 5 C-2 4.34 -2 3.68 -2 3 C-1.34 3 -0.68 3 0 3 C0 2.01 0 1.02 0 0 Z " fill="#292526" transform="translate(275,379)"/>
<path d="M0 0 C0.99 1.32 1.98 2.64 3 4 C0 6 0 6 -3 6 C-2 4 -1 2 0 0 Z " fill="#272526" transform="translate(254,346)"/>
<path d="M0 0 C1.32 0 2.64 0 4 0 C3.67 1.65 3.34 3.3 3 5 C1.68 4.34 0.36 3.68 -1 3 C-0.67 2.01 -0.34 1.02 0 0 Z " fill="#282526" transform="translate(398,297)"/>
<path d="M0 0 C2.76223278 2.76223278 2.57856291 5.20706617 3 9 C0.9375 6.75 0.9375 6.75 -1 4 C-0.75 1.6875 -0.75 1.6875 0 0 Z " fill="#383737" transform="translate(404,217)"/>
</svg>
